<svg focusable="false" aria-hidden="true" xmlns="http://www.w3.org/2000/svg" width="21px" height="21px" viewBox="0 0 18 18" stroke-width="0" stroke-linecap="round" stroke-linejoin="round"><path fill-rule="evenodd" clip-rule="evenodd" d="M17.64 9.20468C17.64 8.56649 17.5827 7.95286 17.4764 7.36377H9V10.8451H13.8436C13.635 11.9701 13.0009 12.9233 12.0477 13.5615V15.8197H14.9564C16.6582 14.2529 17.64 11.9456 17.64 9.20468Z" fill="#4285F4"></path><path fill-rule="evenodd" clip-rule="evenodd" d="M9.00023 17.9999C11.4302 17.9999 13.4675 17.194 14.9566 15.8195L12.048 13.5613C11.242 14.1013 10.2111 14.4204 9.00023 14.4204C6.65615 14.4204 4.67206 12.8372 3.96433 10.71H0.95752V13.0418C2.43843 15.9831 5.48206 17.9999 9.00023 17.9999Z" fill="#34A853"></path><path fill-rule="evenodd" clip-rule="evenodd" d="M3.96408 10.7098C3.78408 10.1698 3.68181 9.593 3.68181 8.99982C3.68181 8.40664 3.78408 7.82982 3.96408 7.28982V4.95801H0.957271C0.347727 6.17301 0 7.54755 0 8.99982C0 10.4521 0.347727 11.8266 0.957271 13.0416L3.96408 10.7098Z" fill="#FBBC05"></path><path fill-rule="evenodd" clip-rule="evenodd" d="M9.00023 3.57954C10.3216 3.57954 11.508 4.03363 12.4407 4.92545L15.022 2.34409C13.4634 0.891817 11.4261 0 9.00023 0C5.48206 0 2.43843 2.01682 0.95752 4.95817L3.96433 7.28999C4.67206 5.16272 6.65615 3.57954 9.00023 3.57954Z" fill="#EA4335"></path></svg>